<svg version="1.2" xmlns="http://www.w3.org/2000/svg" viewBox="0 0 1080 1080" width="1080" height="1080">
	<style>
		.s0 { fill: #003b4e } 
	</style>
	<path id="Path 0" fill-rule="evenodd" class="s0" d="m538 48.22c11.82-0.08 28.47 0.29 37 0.82 8.52 0.53 18.87 1.38 23 1.88 4.12 0.5 11.77 1.61 17 2.46 5.22 0.85 11.75 1.98 14.5 2.5 2.75 0.52 7.47 1.42 10.5 2.01 3.02 0.58 8.2 1.7 11.5 2.48 3.3 0.78 11.4 2.85 18 4.6 6.6 1.75 13.35 3.54 15 3.97 1.65 0.44 4.12 1.28 5.5 1.87 1.37 0.58 5.65 2 9.5 3.16 3.85 1.15 11.05 3.7 16 5.66 4.95 1.95 9.79 3.96 10.75 4.46 0.96 0.5 2.2 0.91 2.75 0.91 0.55 0 4.26 1.51 8.25 3.36 3.99 1.85 9.05 4.14 11.25 5.09 2.2 0.95 9.17 4.35 15.5 7.55 6.32 3.19 15.77 8.25 21 11.24 5.22 2.99 13.1 7.65 17.5 10.37 4.4 2.72 11.54 7.4 15.87 10.41 4.33 3.02 8.84 6.15 10.02 6.98 1.19 0.82 4.85 3.52 8.13 5.99 3.29 2.48 6.2 4.73 6.48 5 0.27 0.28 2.75 2.31 5.5 4.51 2.75 2.2 5.86 4.67 6.9 5.5 1.05 0.82 4.42 3.71 7.5 6.42 3.08 2.7 11.36 10.35 18.4 17 7.04 6.64 17.68 17.48 23.64 24.08 5.96 6.6 14.16 16.11 18.2 21.13 4.05 5.02 9.02 11.32 11.06 14 2.03 2.68 5.18 6.91 7 9.4 1.81 2.49 6.42 9.24 10.23 15 3.81 5.76 8.38 12.72 10.17 15.47 1.79 2.75 4.52 7.5 6.07 10.56 1.56 3.06 3.34 6.21 3.96 7 0.62 0.79 4.29 7.74 8.17 15.44 3.87 7.7 8.61 17.37 10.53 21.5 1.92 4.12 5.29 12 7.49 17.5 2.19 5.5 5.36 13.82 7.03 18.5 1.66 4.67 4.01 11.42 5.22 15 1.2 3.57 2.55 7.85 2.99 9.5 0.44 1.65 1.69 6.37 2.78 10.5 1.09 4.12 2.41 8.85 2.94 10.5 0.54 1.65 1.5 5.47 2.14 8.5 0.65 3.02 1.57 7.3 2.05 9.5 0.48 2.2 1.33 6.47 1.9 9.5 0.57 3.02 1.69 9.1 2.5 13.5 0.81 4.4 1.95 12.05 2.53 17 0.57 4.95 1.61 13.5 2.29 19 0.78 6.26 1.24 23.08 1.23 45 0 21.56-0.48 39.03-1.25 45.5-0.68 5.77-1.72 14.32-2.29 19-0.58 4.67-1.71 12.1-2.52 16.5-0.8 4.4-1.92 10.47-2.49 13.5-0.57 3.02-1.42 7.3-1.9 9.5-0.48 2.2-1.4 6.47-2.05 9.5-0.64 3.02-1.6 6.85-2.14 8.5-0.53 1.65-1.85 6.37-2.94 10.5-1.09 4.12-2.35 8.85-2.81 10.5-0.45 1.65-2.42 7.72-4.37 13.5-1.95 5.77-4.47 13.09-5.6 16.25-1.13 3.16-2.47 6.54-2.98 7.5-0.51 0.96-1.94 4.45-3.18 7.75-1.25 3.3-4.22 10.27-6.62 15.5-2.4 5.22-6.89 14.45-9.98 20.5-3.09 6.05-6.5 12.57-7.58 14.5-1.07 1.92-4.61 8-7.88 13.5-3.26 5.5-7.69 12.7-9.83 16-2.15 3.3-4.78 7.57-5.86 9.5-1.07 1.92-3.34 5.3-5.04 7.5-1.7 2.2-3.44 4.45-3.88 5-0.43 0.55-1.87 2.57-3.2 4.5-1.32 1.92-6 8-10.39 13.5-4.39 5.5-9.59 11.82-11.56 14.05-1.97 2.23-7.41 8.28-12.08 13.45-4.68 5.17-11.03 11.9-14.12 14.95-3.1 3.05-8.29 8.02-11.53 11.05-3.25 3.02-8.82 8.04-12.38 11.15-3.56 3.11-8.32 7.16-10.57 9-2.26 1.84-5.83 4.7-7.93 6.35-2.1 1.65-4.31 3.46-4.9 4.03-0.59 0.56-4.9 3.69-9.57 6.95-4.68 3.26-13.23 9.09-19.01 12.97-5.78 3.88-11.41 7.6-12.5 8.27-1.1 0.67-5.3 3.14-9.34 5.5-4.04 2.35-9.44 5.44-12 6.86-2.56 1.42-8.7 4.65-13.65 7.18-4.95 2.53-11.7 5.92-15 7.53-3.3 1.62-13.43 5.97-22.5 9.68-9.08 3.72-18.98 7.57-22 8.58-3.03 1.01-7.98 2.71-11 3.77-3.03 1.07-8.88 2.91-13 4.08-4.13 1.18-9.53 2.77-12 3.53-2.48 0.75-6.75 1.9-9.5 2.54-2.75 0.64-6.8 1.57-9 2.06-2.2 0.5-6.7 1.4-10 2.01-3.3 0.62-8.93 1.74-12.5 2.5-3.58 0.76-9.65 1.83-13.5 2.39-3.85 0.56-10.6 1.47-15 2.02-4.4 0.55-12.95 1.46-19 2.02-6.05 0.57-24.5 1.03-41 1.02-18.6-0.01-35.51-0.56-44.5-1.45-7.98-0.79-17.33-1.8-20.8-2.24-5.43-0.69-6.25-1.07-6-2.72 0.24-1.51 1.69-2.19 6.8-3.16 3.57-0.68 10.55-2.01 15.5-2.96 7.4-1.41 11.76-1.58 24.5-0.97 8.52 0.4 22.02 0.7 30 0.65 7.97-0.05 20.12-0.58 27-1.18 6.87-0.6 18.57-2 26-3.1 7.42-1.1 19.8-3.31 27.5-4.91 7.7-1.59 20.52-4.69 28.5-6.87 7.97-2.18 19.9-5.86 26.5-8.17 6.6-2.31 17.85-6.66 25-9.67 7.15-3.01 18.17-8.06 24.5-11.23 6.32-3.17 15.55-8.14 20.5-11.04 4.95-2.9 14.4-8.86 21-13.23 6.6-4.38 17.38-12.3 23.95-17.6 6.57-5.3 16.86-14.37 22.88-20.14 6.01-5.78 15.29-15.45 20.61-21.5 5.33-6.05 12.64-14.83 16.24-19.5 3.61-4.68 10.4-14.35 15.09-21.5 4.69-7.15 12.17-19.75 16.62-28 4.45-8.25 11.19-22.2 14.98-31 3.79-8.8 8.74-21.18 10.99-27.5 2.26-6.33 5.48-16 7.17-21.5 1.68-5.5 4.4-15.18 6.05-21.5 1.64-6.33 4.34-18.03 5.99-26 1.66-7.98 3.87-19.9 4.92-26.5 1.06-6.6 2.6-17.85 3.44-25 0.84-7.15 1.98-18.18 2.54-24.5 0.55-6.33 1.52-22.98 2.14-37 0.66-14.92 0.87-37.74 0.5-55-0.35-16.23-1.1-34.45-1.67-40.5-0.57-6.05-1.69-15.73-2.5-21.5-0.8-5.78-2.12-15.23-2.93-21-0.82-5.78-2.39-15.45-3.5-21.5-1.11-6.05-3.17-16.4-4.58-23-1.41-6.6-4.15-18.08-6.09-25.5-1.94-7.43-5.54-20.03-8.01-28-2.46-7.98-7.87-23.05-12.02-33.5-4.15-10.45-11.26-26.43-15.8-35.5-4.54-9.08-11.09-21.23-14.55-27-3.45-5.78-8.99-14.55-12.29-19.5-3.31-4.95-9.42-13.5-13.57-19-4.16-5.5-11.43-14.5-16.17-20-4.74-5.5-14.65-15.85-22.04-23-7.38-7.15-19.04-17.51-25.9-23.02-6.87-5.51-18.57-14.1-25.99-19.09-7.43-4.99-19.58-12.47-27-16.63-7.43-4.16-21.38-11.17-31-15.59-9.63-4.41-22-9.67-27.5-11.68-5.5-2.01-12.7-4.54-16-5.62-3.3-1.08-10.5-3.08-16-4.46-5.5-1.38-11.58-2.92-13.5-3.43-1.93-0.51-7.1-1.56-11.5-2.35-4.4-0.79-11.38-1.97-15.5-2.63-4.13-0.65-8.85-1.03-13.5-0.5l-0.27 242.5c-0.15 133.37-0.6 242.88-1 243.34-0.4 0.46-1.79 0.01-3.09-1-1.3-1.01-2.88-2.3-3.5-2.87-0.63-0.56-6.09-5.29-12.14-10.52-6.05-5.22-14.38-12.18-18.5-15.47-4.13-3.28-7.73-6.22-8-6.53-0.28-0.31-2.3-1.88-4.5-3.5-2.2-1.62-6.47-4.9-9.5-7.28-3.02-2.39-6.18-4.87-7-5.52-0.83-0.65-6.45-4.73-12.5-9.06-6.05-4.34-11.81-8.83-12.79-9.99-1.71-2.01-1.79-11.74-1.75-215.35 0.03-169.5 0.3-213.4 1.29-214 0.69-0.41 5.97-1.01 11.75-1.32 5.77-0.31 20.17-0.63 32-0.71zm-76.5 6.11c2.95 0.17 3 0.27 3.25 6.17 0.14 3.3-0.14 6.45-0.63 7-0.49 0.55-2.18 1.28-3.76 1.62-1.57 0.34-8.94 2.23-16.36 4.2-7.43 1.97-16.2 4.47-19.5 5.56-3.3 1.08-9.38 3.17-13.5 4.64-4.13 1.46-12.45 4.68-18.5 7.15-6.05 2.48-15.05 6.51-20 8.96-4.95 2.46-11.25 5.89-14 7.63-2.75 1.74-7.48 4.97-10.5 7.18-3.03 2.2-9.65 8.07-14.72 13.03-5.07 4.97-9.23 9.59-9.25 10.28-0.01 0.69-0.39 1.36-0.83 1.5-0.44 0.14-2.86 3.17-5.39 6.75-2.52 3.57-6.57 10.32-9.01 15-2.44 4.67-6.48 13.67-8.98 20-2.5 6.32-5.48 15.1-6.63 19.5-1.14 4.4-2.75 10.92-3.56 14.5-0.82 3.57-2.05 10.32-2.74 15-0.69 4.67-1.23 16.82-1.19 27 0.04 12.15 0.6 21.42 1.62 27 0.86 4.67 2.3 11.2 3.21 14.5 0.9 3.3 2.01 7.35 2.46 9 0.45 1.65 1.7 5.47 2.79 8.5 1.09 3.02 3.38 8.54 5.1 12.25 1.72 3.71 3.12 6.97 3.12 7.25 0 0.27 2.38 4.44 5.29 9.25 2.9 4.81 5.6 9.42 5.99 10.25 0.39 0.82 2.18 3.52 3.98 6 1.8 2.47 5.29 7.2 7.75 10.5 2.46 3.3 4.71 6.22 4.98 6.5 0.28 0.27 2.75 3.2 5.49 6.5 2.74 3.3 7.24 8.44 10 11.42 2.76 2.97 9.92 10.17 15.91 16 5.99 5.82 11.84 11.49 13 12.61 1.16 1.12 7.77 6.74 14.69 12.5 6.92 5.76 14.97 12.27 17.9 14.47 2.92 2.2 6.71 5.15 8.41 6.55 1.71 1.41 6.21 4.78 10 7.5 3.78 2.72 9.63 6.92 13 9.33 3.36 2.41 6.33 4.69 6.61 5.07 0.27 0.37 2.75 2.2 5.5 4.05 2.75 1.85 5.22 3.64 5.5 3.97 0.27 0.33 3.87 3.02 8 5.98 4.12 2.96 7.72 5.66 8 6.01 0.27 0.35 4.1 3.19 8.5 6.31 4.4 3.13 11.6 8.44 16 11.81 4.4 3.38 9.35 7.18 11 8.45 1.65 1.28 5.42 4.27 8.38 6.65 2.96 2.37 6.59 5.22 8.07 6.32 1.48 1.1 5.36 4.24 8.62 6.99 3.26 2.74 10.88 9.26 16.93 14.49 6.05 5.22 13.25 11.52 16 13.99 2.75 2.47 10.2 9.67 16.56 16.01 6.35 6.34 14.08 14.44 17.16 18.02 3.08 3.57 6.64 7.85 7.91 9.5 1.27 1.65 2.56 3.22 2.89 3.5 0.32 0.27 2.13 2.75 4.03 5.5 1.9 2.75 3.96 5.45 4.59 6 0.63 0.55 4.2 5.72 7.93 11.5 3.74 5.77 8.03 12.75 9.55 15.5 1.51 2.75 4.18 7.92 5.92 11.5 1.74 3.57 4.06 8.52 5.15 11 1.1 2.47 2.37 5.4 2.83 6.5 0.47 1.1 1.79 4.92 2.94 8.5 1.15 3.57 2.71 8.52 3.47 11 0.75 2.47 1.84 6.52 2.42 9 0.57 2.47 1.29 5.85 1.6 7.5 0.31 1.65 1.23 7.72 2.05 13.5 0.84 5.97 1.49 17.93 1.49 27.75 0.01 9.49-0.45 20.51-1.01 24.5-0.56 3.99-1.49 9.95-2.08 13.25-0.59 3.3-1.76 8.92-2.6 12.5-0.84 3.57-3.44 12.35-5.76 19.5-2.33 7.15-4.74 13.9-5.36 15-0.62 1.1-2.93 5.82-5.14 10.5-2.21 4.67-5.21 10.52-6.67 13-1.46 2.47-3.43 5.85-4.37 7.5-0.94 1.65-4.14 6.42-7.11 10.61-2.96 4.18-7.22 10.03-9.47 13-2.24 2.96-9.66 11.06-16.5 18-6.83 6.93-14.87 14.58-17.86 17-2.99 2.41-7.04 5.62-9 7.13-1.96 1.5-6.71 4.92-10.56 7.59-3.85 2.67-11.5 7.55-17 10.84-5.5 3.29-15.18 8.47-21.5 11.52-6.33 3.05-16.9 7.58-23.5 10.06-6.6 2.49-14.03 5.08-16.5 5.75-2.48 0.68-5.63 1.61-7 2.07-1.38 0.45-7 1.79-12.5 2.96-5.5 1.18-12.93 2.56-16.5 3.07-3.58 0.51-14.6 1.21-24.5 1.56-11.5 0.39-21.97 0.18-29-0.58-6.05-0.66-14.15-1.88-18-2.71-3.85-0.82-10.83-2.42-15.5-3.55-4.68-1.13-11.65-3.07-15.5-4.31-3.85-1.24-8.13-2.73-9.5-3.3-1.38-0.57-6.33-2.52-11-4.34-4.68-1.81-13.45-5.83-19.5-8.92-6.05-3.1-13.7-7.14-17-8.99-3.3-1.85-8.7-5.27-12-7.62-3.3-2.34-6.45-4.29-7-4.33-0.55-0.04-2.8-1.42-5-3.07-2.2-1.64-8.05-5.93-13-9.51-4.95-3.59-10.35-7.6-12-8.91-1.65-1.32-4.35-3.43-6-4.69-1.65-1.26-5.7-4.56-9-7.33-3.3-2.78-7.54-6.39-9.43-8.02-1.89-1.64-6.61-5.91-10.5-9.48-3.89-3.58-10.44-9.88-14.57-14-4.12-4.13-10.43-10.7-14-14.6-3.58-3.91-7.87-8.64-9.55-10.5-1.68-1.87-6.11-7.23-9.86-11.9-3.75-4.68-7.66-9.51-8.7-10.75-1.04-1.24-6.73-9.21-12.64-17.72-5.91-8.5-13-19.14-15.75-23.63-2.75-4.5-6.91-11.6-9.24-15.79-2.33-4.18-7.44-14.14-11.36-22.11-3.92-7.98-8.26-16.98-9.64-20-1.39-3.03-2.91-6.51-3.39-7.75-0.48-1.24-1.3-3.26-1.82-4.5-0.52-1.24-2.36-5.85-4.09-10.25-1.73-4.4-4.44-11.83-6.02-16.5-1.59-4.68-4.03-11.88-5.44-16-1.4-4.13-3.71-11.78-5.13-17-1.41-5.23-3.22-12.2-4.02-15.5-0.79-3.3-1.84-7.8-2.33-10-0.49-2.2-1.41-6.93-2.04-10.5-0.64-3.58-1.76-9.65-2.49-13.5-0.73-3.85-1.8-10.83-2.37-15.5-0.58-4.68-1.61-13.23-2.29-19-0.76-6.45-1.24-23.8-1.24-45 0-20.67 0.49-38.71 1.22-45 0.66-5.78 1.7-14.33 2.3-19 0.59-4.68 1.68-11.65 2.41-15.5 0.74-3.85 1.85-9.93 2.47-13.5 0.63-3.58 1.54-8.3 2.03-10.5 0.49-2.2 1.54-6.7 2.33-10 0.8-3.3 2.41-9.6 3.59-14 1.18-4.4 3.06-11.15 4.19-15 1.13-3.85 2.51-8.13 3.06-9.5 0.56-1.38 2.27-6.33 3.8-11 1.53-4.68 4.24-12.1 6.02-16.5 1.79-4.4 4.09-9.91 5.12-12.25 1.03-2.34 1.87-4.48 1.87-4.75 0-0.28 1.76-4.21 3.9-8.75 2.15-4.54 4.87-10.28 6.04-12.75 1.18-2.48 4.35-8.55 7.04-13.5 2.7-4.95 6.11-11.25 7.6-14 1.48-2.75 4.95-8.6 7.72-13 2.76-4.4 7.73-12.05 11.03-17 3.31-4.95 9.18-13.28 13.04-18.5 3.86-5.23 9.94-13.1 13.52-17.5 3.58-4.4 10.57-12.5 15.54-18 4.96-5.5 13.53-14.52 19.05-20.05 5.51-5.52 12.94-12.68 16.52-15.9 3.57-3.22 8.29-7.48 10.48-9.45 2.18-1.98 6.23-5.37 9-7.53 2.76-2.16 5.24-4.21 5.52-4.55 0.27-0.34 4.1-3.29 8.5-6.56 4.4-3.27 8.11-6.28 8.25-6.7 0.14-0.42 0.81-0.74 1.5-0.72 0.69 0.03 1.92-0.71 2.75-1.64 0.82-0.94 7.12-5.38 14-9.88 6.87-4.5 14.02-9.05 15.88-10.1 1.86-1.06 4.11-2.38 5-2.93 0.89-0.56 4.77-2.87 8.62-5.14 3.85-2.28 12.85-7.07 20-10.66 7.15-3.59 15.92-7.86 19.5-9.5 3.57-1.63 12.8-5.54 20.5-8.68 7.7-3.14 17.6-6.84 22-8.21 4.4-1.38 11.37-3.59 15.5-4.92 4.12-1.33 8.85-2.82 10.5-3.3 1.65-0.49 7.95-2.07 14-3.52 6.05-1.46 12.8-3.04 15-3.52 2.2-0.48 6.47-1.36 9.5-1.95 3.02-0.6 7.52-1.49 10-2 2.47-0.51 5.85-0.85 7.5-0.76zm-262.14 216.59c-2.28 4.17-5.5 10.28-7.16 13.58-1.65 3.3-5.3 10.84-8.1 16.75-2.81 5.91-5.1 10.97-5.1 11.25 0 0.27-1.06 2.86-2.37 5.75-1.3 2.89-3.37 7.95-4.59 11.25-1.23 3.3-2.59 6.9-3.01 8-0.43 1.1-1.33 3.35-2 5-0.67 1.65-2.24 6.15-3.5 10-1.25 3.85-3.47 10.82-4.92 15.5-1.45 4.67-3.03 9.85-3.52 11.5-0.49 1.65-1.86 7.05-3.05 12-1.18 4.95-2.55 10.8-3.03 13-0.49 2.2-1.56 6.92-2.38 10.5-0.82 3.57-1.96 8.97-2.53 12-0.57 3.02-1.47 8.42-2.01 12-0.53 3.57-1.43 9.87-1.99 14-0.56 4.12-1.7 13.12-2.53 20-0.83 6.87-1.97 19.25-2.55 27.5-0.57 8.25-1.04 27.6-1.03 43 0 15.4 0.47 34.07 1.04 41.5 0.57 7.42 1.71 19.12 2.54 26 0.83 6.87 1.97 15.87 2.54 20 0.56 4.12 1.49 10.42 2.07 14 0.58 3.57 1.93 10.77 3.01 16 1.07 5.22 2.8 13.32 3.84 18 1.03 4.67 3.04 13 4.46 18.5 1.42 5.5 3.74 13.6 5.17 18 1.42 4.4 3.64 11.15 4.92 15 1.28 3.85 3.5 10.15 4.94 14 1.44 3.85 3.32 9.02 4.18 11.5 0.85 2.47 2.67 6.97 4.03 10 1.36 3.02 2.85 6.4 3.31 7.5 0.45 1.1 2.84 6.27 5.29 11.5 2.46 5.22 5.65 11.97 7.09 15 1.44 3.02 3.03 6.17 3.54 7 0.5 0.82 3.02 5.32 5.6 10 2.57 4.67 5.57 10.07 6.66 12 1.09 1.92 6.32 10.01 11.63 17.96 5.31 7.95 11 16.08 12.65 18.08 1.65 1.99 4.12 5.11 5.5 6.93 1.37 1.83 4.07 5.16 6 7.4 1.92 2.25 8.27 9.27 14.1 15.61 5.82 6.34 14.09 14.67 18.37 18.52 4.28 3.85 8.51 7.72 9.41 8.6 0.89 0.88 6.34 5.32 12.12 9.86 5.77 4.54 16.35 12.11 23.5 16.83 7.15 4.72 19.75 12.05 28 16.28 8.25 4.24 19.27 9.11 24.5 10.83 5.22 1.72 11.07 3.64 13 4.28 1.92 0.64 5.3 1.53 7.5 2 2.2 0.46 8.72 1.51 14.5 2.32 5.77 0.82 14.55 1.47 19.5 1.46 4.95-0.01 13.5-0.67 19-1.45 5.5-0.78 11.57-1.83 13.5-2.32 1.92-0.5 6.65-1.96 10.5-3.24 3.85-1.29 12.17-5 18.5-8.24 6.32-3.25 14.87-8.2 19-11 4.12-2.81 9.07-6.48 10.99-8.16 1.93-1.68 6.89-6.43 11.04-10.55 4.15-4.13 9.14-9.53 11.09-12 1.94-2.48 6.13-8.33 9.3-13 3.18-4.68 8.18-13.45 11.11-19.5 2.94-6.05 6.88-15.73 8.77-21.5 1.88-5.78 3.91-12.53 4.51-15 0.6-2.48 1.55-7.43 2.11-11 0.57-3.58 1.49-9.76 2.05-13.75 0.57-3.99 1.03-15.35 1.03-25.25 0-9.9-0.47-21.26-1.05-25.25-0.58-3.99-1.96-11.98-3.06-17.75-1.09-5.78-4.04-16.58-6.54-24-2.5-7.43-6.63-17.78-9.18-23-2.54-5.23-7.03-13.55-9.97-18.5-2.93-4.95-7.57-12.15-10.3-16-2.73-3.85-5.73-7.92-6.68-9.03-0.95-1.12-3.97-4.72-6.72-8-2.75-3.27-5.68-6.81-6.5-7.85-0.83-1.04-3.82-4.42-6.67-7.51-2.84-3.08-8.01-8.54-11.5-12.11-3.49-3.58-10.62-10.55-15.85-15.5-5.23-4.95-11.75-10.88-14.49-13.18-2.75-2.3-7.47-6.27-10.49-8.84-3.03-2.56-7.53-6.06-10-7.77-2.48-1.71-4.98-3.59-5.57-4.16-0.59-0.58-2.81-2.4-4.93-4.05-2.11-1.65-5.23-4.14-6.92-5.53-1.7-1.39-4.88-3.85-7.08-5.45-2.2-1.6-4.23-3.17-4.5-3.47-0.28-0.31-2.98-2.43-6-4.71-3.03-2.28-8.43-6.45-12-9.25-3.58-2.81-8.53-6.53-11-8.28-2.48-1.75-4.73-3.45-5-3.78-0.28-0.32-4.1-3.31-8.5-6.64-4.4-3.32-10.86-8.25-14.35-10.96-3.49-2.71-8.5-6.51-11.14-8.43-2.63-1.93-6.52-4.84-8.65-6.47-2.12-1.64-8.81-7.03-14.86-11.98-6.05-4.96-11.82-9.69-12.83-10.53-1.01-0.84-5.28-4.66-9.5-8.5-4.22-3.84-13.34-12.62-20.27-19.5-6.93-6.89-14.75-15-17.38-18.02-2.62-3.03-5.84-6.74-7.15-8.25-1.3-1.51-4.73-5.82-7.62-9.57-2.89-3.76-6.38-8.32-7.75-10.13-1.38-1.82-3.4-4.8-4.5-6.63-1.1-1.82-4.17-6.82-6.83-11.12-2.66-4.29-6.86-12.08-9.33-17.3-2.48-5.23-5.11-10.85-5.85-12.5-0.74-1.65-2.23-5.48-3.3-8.5-1.08-3.03-2.51-7.53-3.2-10-0.68-2.48-1.83-6.53-2.55-9-0.72-2.48-1.77-6.98-2.33-10-0.56-3.03-1.49-8.76-2.07-12.75-0.57-3.99-1.04-15.46-1.03-25.5 0-10.04 0.45-21.18 1-24.75 0.55-3.58 1.44-9.33 1.98-12.8 0.54-3.46 0.84-6.52 0.68-6.8-0.17-0.28-2.07 2.52-4.24 6.22-2.16 3.7-5.79 10.14-8.07 14.3z"/>
</svg>