<?xml version="1.0" encoding="UTF-8" standalone="no"?>
<svg
   version="1.2"
   viewBox="0 0 1640 664"
   width="2000"
   height="810"
   id="svg1"
   sodipodi:docname="Signature_dark.svg"
   inkscape:version="1.4.2 (f4327f4, 2025-05-13)"
   xmlns:inkscape="http://www.inkscape.org/namespaces/inkscape"
   xmlns:sodipodi="http://sodipodi.sourceforge.net/DTD/sodipodi-0.dtd"
   xmlns="http://www.w3.org/2000/svg"
   xmlns:svg="http://www.w3.org/2000/svg">
  <defs
     id="defs1" />
  <sodipodi:namedview
     id="namedview1"
     pagecolor="#ffffff"
     bordercolor="#000000"
     borderopacity="0.25"
     inkscape:showpageshadow="2"
     inkscape:pageopacity="0.0"
     inkscape:pagecheckerboard="0"
     inkscape:deskcolor="#d1d1d1"
     inkscape:zoom="10.046573"
     inkscape:cx="355.84273"
     inkscape:cy="413.52409"
     inkscape:window-width="1920"
     inkscape:window-height="1017"
     inkscape:window-x="1912"
     inkscape:window-y="-8"
     inkscape:window-maximized="1"
     inkscape:current-layer="svg1" />
  <style
     id="style1">
		.s0 { fill: #e9edef } 
	</style>
  <path
     id="Solenne &amp; Dorian"
     class="s0"
     aria-label="Solenne &amp; Dorian"
     d="m 237.6,338.1 c -13.8,10.6 -27.6,21.3 -41.3,32.1 -2.9,-14.4 -10.5,-27 -24.8,-34.2 -19.5,-9.9 -41.6,-4.2 -62.3,-6.7 -9.6,-1.2 -18.4,-4.6 -20.9,-14.8 -2.3,-10 0.9,-21 4.6,-30.2 11.1,-27.7 32.8,-52.7 59.4,-66.5 13.3,-6.9 29.2,-12.9 44.4,-12.7 7.3,0.1 11,0.8 8.7,9.1 -2.5,9.1 -8,17.5 -13.2,25.2 -3.1,4.5 4.1,11.7 7.8,7.3 10.7,-13.1 32.5,-43.1 5.9,-52.6 -21.9,-7.8 -52.3,5.6 -70.4,17.2 -21.2,13.5 -38.7,33.4 -50.1,55.8 -8.3,16.3 -15.1,38.6 -5.6,55.8 10.3,18.7 32.3,16.6 50.6,15.9 24,-0.9 48.9,1 56.7,27.9 0.9,3 1.5,6.2 2,9.3 -19,15.2 -37.5,30.8 -55.2,47.3 -10.1,9.4 -32.8,33.9 -11.5,44.8 16.7,8.5 41.2,-7.1 51.9,-19.2 15.1,-16.8 25.9,-47.2 22.9,-73.1 14.4,-11.7 28.9,-23.3 43.5,-34.7 1.8,-1.4 -1.3,-4.4 -3.1,-3 z m -65,101.1 c -6.9,9.5 -15.7,16.5 -26.5,21 -5.9,2.5 -14,5.5 -20.3,3.3 -11.1,-3.9 -5.2,-16 -0.5,-22.6 8,-11 19.1,-20.1 29.3,-29.1 11.4,-10.2 23.2,-20.1 35,-29.8 1.1,20.1 -5.6,41.5 -17,57.2 z M 319.8,334.8 c -9,1.2 -18.3,2.4 -27.5,2.8 -3.8,-8.6 -10.1,-16.1 -18.5,-20.9 -6.5,-3.6 -20,-5.9 -24.7,1.8 -1.3,2.1 -1.6,4.4 -1.3,6.7 -16.1,10.3 -21.9,33.9 -14.9,51.9 9.6,24.8 40.2,27.4 55.4,6.2 8.8,-12.2 10.2,-28.2 5.4,-42 9.2,-0.6 18.4,-1.7 27.5,-3.1 2.3,-0.3 0.6,-3.7 -1.4,-3.4 z m -60.7,-16.1 c 12.5,-2.8 21,8.3 25.2,19 -4.1,0 -8.3,-0.2 -12.4,-0.7 -4.3,-0.5 -9.1,-1.2 -13,-3.3 -0.1,0 -0.1,0 -0.2,-0.1 2.1,-0.7 4.3,-1.2 6.8,-1.6 7.7,-1.1 1.9,-12.6 -4.7,-11.6 -2.4,0.4 -4.6,0.9 -6.7,1.7 0.8,-1.5 2.4,-2.8 5,-3.4 z m 18.8,60.5 c -8,8.7 -21.5,12.8 -30.7,3.3 -7.2,-7.4 -7.4,-19.8 -5.2,-29.2 2,-8.3 6.1,-14.1 12.4,-17.7 0.5,0.4 1,0.8 1.5,1.1 8.4,5 20,5.2 29.8,4.9 0.2,0.7 0.4,1.3 0.5,2 3.4,12.7 0.6,25.8 -8.3,35.6 z m 98.2,-38 c -8.5,24 -15.9,54.3 -35.5,72.1 -2.7,2.5 -6.4,5.6 -9,2.5 -1.9,-2.1 -2,-8.2 -2.3,-10.9 -0.8,-8.2 -0.3,-16.4 0.1,-24.6 0.6,-13.5 0.9,-27 1.5,-40.4 10.1,-16.1 18.6,-33.7 26.2,-51 8.8,-20.1 17.9,-41.6 20.4,-63.6 1.1,-10 3.7,-36.1 -11.2,-37.5 -12.5,-1.1 -21.8,16.7 -25.9,26 -15.4,35.2 -18.3,77.1 -20.8,115 -1.1,17 -1.8,34.1 -1.5,51.3 0.2,12 -1.6,37.6 11.4,44.5 16.2,8.6 28.2,-22.9 32.8,-32.7 7.2,-15.7 13.5,-32.2 17.9,-48.9 0.6,-1.9 -3.3,-4 -4.1,-1.8 z M 341.8,239.9 c 2.8,-12.2 6.4,-25.8 13.9,-36 1.3,-1.9 2.8,-3.6 4.5,-5.1 5.4,-4.9 9.5,-2.7 10.7,3.6 1.5,7.9 1.2,16.5 0.2,24.4 -4.6,36.1 -23.3,68.2 -39.6,100.3 1.4,-29.2 3.7,-58.8 10.3,-87.2 z m 96.5,99 c -5.3,12.2 -11.5,24.1 -19,35.1 -5.8,8.7 -32.7,42.1 -43,21.4 -4.5,-9.1 0.2,-24.5 3.2,-33.3 2,-6 4.6,-11.8 7.6,-17.4 0.1,0.1 0.2,0.1 0.3,0.1 11.1,2.2 23.2,-2.1 31.1,-10 6.1,-6.2 10.3,-16.2 1.7,-22.4 -18,-12.7 -34.8,12.2 -41.7,25.5 -8.3,15.9 -20.3,47.1 -5.5,62.8 13.1,13.9 31.4,-0.2 40.6,-11.1 12.1,-14.3 20.9,-31.5 28,-48.7 0.8,-1.8 -2.4,-4 -3.3,-2 z m -25.6,-18.7 c 3.6,2 -6.1,9.6 -8.4,11 -3.6,2.2 -7.1,2.9 -10.7,2.8 4.2,-6 13.1,-17.3 19.1,-13.8 z m 117.5,18.7 c -3.2,6.2 -18.4,38 -28.6,29.6 -5.1,-4.3 -5.3,-17 -7.1,-23.1 -3.3,-11 -10.6,-17.5 -21.4,-10.4 -11.8,7.9 -19.2,23.9 -26.3,35.8 -1.7,3 -3.5,6 -5.4,9 0,0 0,0 0,0 2.4,-19 7.3,-37.8 12.4,-56.2 2,-7.2 -9.8,-13.5 -11.6,-5.2 -4.6,21.5 -11.8,44.2 -12.2,66.4 -0.1,7.2 4.6,18.6 13.3,11.3 4.8,-4 7.9,-11.4 10.8,-16.7 4.7,-8.5 9.3,-17.1 14.4,-25.3 2.3,-3.8 9.7,-17.7 15.4,-17.1 7.1,0.8 8.9,21.6 11,27.1 11.1,28.6 33.1,-12.2 38.7,-23.2 0.9,-1.8 -2.3,-3.9 -3.4,-2 z m -95.3,49.4 c 0,-0.2 0.1,-0.2 0.3,-0.3 -0.2,0.2 -0.3,0.3 -0.3,0.3 z m 5.7,2.7 c 0,0 -0.1,-0.2 -0.1,-0.4 0.2,0.2 0.2,0.3 0.1,0.4 z m 181.6,-52.1 c -3.2,6.2 -18.4,38 -28.6,29.6 -5.1,-4.3 -5.3,-17 -7.1,-23.1 -3.3,-11 -10.6,-17.5 -21.4,-10.4 -11.8,7.9 -19.2,23.9 -26.3,35.8 -1.7,3 -3.5,6 -5.4,9 0,0 0,0 0,0 2.4,-19 7.3,-37.8 12.4,-56.2 2,-7.2 -9.8,-13.5 -11.6,-5.2 -4.6,21.5 -11.8,44.2 -12.2,66.4 -0.1,7.2 4.6,18.6 13.3,11.3 4.8,-4 7.9,-11.4 10.8,-16.7 4.7,-8.5 9.3,-17.1 14.4,-25.3 2.3,-3.8 9.7,-17.7 15.4,-17.1 7.1,0.8 8.9,21.6 11,27.1 11.1,28.6 33.1,-12.2 38.7,-23.2 0.9,-1.8 -2.3,-3.9 -3.4,-2 z m -95.3,49.4 c 0,-0.2 0.1,-0.2 0.3,-0.3 -0.2,0.2 -0.3,0.3 -0.3,0.3 z m 5.7,2.7 c 0,0 -0.1,-0.2 -0.1,-0.4 0.2,0.2 0.2,0.3 0.1,0.4 z m 149.7,-52.1 c -5.3,12.2 -11.5,24.1 -19,35.1 -5.8,8.7 -32.7,42.1 -43,21.4 -4.5,-9.1 0.2,-24.5 3.2,-33.3 2,-6 4.6,-11.8 7.6,-17.4 0.1,0.1 0.2,0.1 0.3,0.1 11.1,2.2 23.2,-2.1 31.1,-10 6.1,-6.2 10.3,-16.2 1.7,-22.4 -18,-12.7 -34.8,12.2 -41.7,25.5 -8.3,15.9 -20.3,47.1 -5.5,62.8 13.1,13.9 31.4,-0.2 40.6,-11.1 12.1,-14.3 20.9,-31.5 28,-48.7 0.8,-1.8 -2.4,-4 -3.3,-2 z m -25.6,-18.7 c 3.6,2 -6.1,9.6 -8.4,11 -3.6,2.2 -7.1,2.9 -10.7,2.8 4.2,-6 13.1,-17.3 19.1,-13.8 z m 228.7,93.4 c -11,-13.1 -22.9,-25 -32.6,-39.1 -0.7,-1 -1.4,-1.9 -2,-2.9 1.6,-3.3 3,-6.6 4.3,-10 2.4,-6.6 -8.5,-14.4 -12.1,-7.1 -0.4,0.8 -0.8,1.7 -1.2,2.5 -2.8,-5 -5.5,-10.1 -7.9,-15.4 4.1,-7.7 7.5,-15.8 9.5,-24.7 2.5,-11.2 3.3,-25.8 -3.8,-35.7 -5,-6.9 -15.2,-11.2 -22.8,-5.6 -9.2,6.9 -6,20 -3.6,29.4 3,11.6 6.9,22.9 11.7,33.9 -2,3.4 -4.1,6.7 -6.2,9.9 -8.9,13.6 -52.7,63.9 -23.7,76.2 12.8,5.4 27.4,-13.3 34.5,-21.5 6.3,-7.4 12.2,-15.5 17.2,-24.1 9.8,14.6 21.5,28 35.3,37.9 2.4,1.7 5.3,-1.4 3.4,-3.7 z M 819.7,300.9 c -1.1,-4.9 -2.7,-11 0.1,-15.7 7.7,-12.9 16.4,3.2 17.1,10.6 1.3,12.1 -2.3,24 -7.7,35 -0.4,-1.1 -0.9,-2.2 -1.3,-3.4 -3.3,-8.6 -6.2,-17.5 -8.2,-26.5 z m 0.3,91.6 c -4.4,5.3 -9.1,10.3 -14,15.1 -0.9,0.8 -2.4,2.9 -3.5,3.3 -4.2,1.5 -4.9,-1.7 -4.4,-5.3 0.5,-3.9 2.9,-8.2 4.5,-11.8 7.3,-15.7 18.1,-29.7 27,-44.5 2.5,5.2 5.2,10.5 8.2,15.6 -5.1,9.7 -10.7,19 -17.8,27.6 z m 298.2,-198.2 c -17.1,-3.7 -30.3,11 -39.3,23.4 -11.8,16.3 -20.7,34.5 -28.3,53.1 -5.2,12.9 -9.9,26.1 -14,39.4 0.2,-3.5 0.3,-7 0.4,-10.5 1.2,-29.9 2.2,-59.8 2.2,-89.7 0.1,-4.8 -6.6,-9.7 -9.9,-4.4 -2.8,4.6 -5.4,9.2 -7.7,14 -1.6,3.2 3.2,7.4 6.1,5.3 -1.7,24.1 -2.9,48.3 -4,72.4 -0.7,14.9 -1.3,29.7 -2,44.6 -0.5,10 -1.4,20.3 -1.4,30.5 -13.9,2.7 -25.4,10.5 -27,27.7 -2.8,28.4 16,58.9 43.4,67.5 21.1,6.7 44.3,2.9 62.2,-10 17.6,-12.6 30.5,-30.6 40,-50.9 2.4,1.1 4.8,2.2 7.2,3.2 3,1.3 3.8,-3.3 1.3,-4.6 -2.2,-1 -4.3,-2 -6.4,-3 11.3,-25.9 17.3,-54.9 20,-80.5 2.6,-24.6 2.7,-50.6 -3.3,-74.8 -4.9,-20.1 -17.1,-47.8 -39.5,-52.7 z m -3.9,236.6 c -10.7,14.3 -25.1,27.5 -43.1,31.6 -29.7,6.7 -57.9,-7.6 -68.2,-36.5 -4.3,-12.1 -6.8,-29.8 3,-40.1 3.8,-4 9,-6.2 14.5,-7.4 0.1,2.6 0.2,5.2 0.5,7.8 0.6,5.5 10,9.1 11.4,2.2 0.5,-2.6 0.9,-5.3 1.3,-8 0.3,-1.1 0.7,-2.2 1,-3.2 1,0 1.9,0 2.8,0 32,1.1 63.7,13.1 93.3,25.9 -4.7,9.8 -10.1,19.1 -16.5,27.7 z M 1153.2,297 c -0.4,33.5 -6.3,69.8 -20.3,101.5 -29.6,-13.7 -61.7,-25.5 -94,-27.2 -0.7,-0.1 -1.4,-0.1 -2.1,-0.1 2,-6.1 4.1,-12.2 5.7,-18.5 3.8,-15.1 7.9,-30.1 12.6,-44.9 9.4,-30.1 20.9,-62.9 40.9,-87.8 9.1,-11.4 20.7,-19.2 33.1,-7.2 6.5,6.4 11.4,15 14.7,23.4 7.6,19.1 9.7,40.5 9.4,60.8 z m 107.6,37.8 c -9,1.2 -18.3,2.4 -27.5,2.8 -3.8,-8.6 -10.1,-16.1 -18.5,-20.9 -6.5,-3.6 -20,-5.9 -24.7,1.8 -1.3,2.1 -1.6,4.4 -1.3,6.7 -16.1,10.3 -21.9,33.9 -14.9,51.9 9.6,24.8 40.2,27.4 55.4,6.2 8.8,-12.2 10.2,-28.2 5.4,-42 9.2,-0.6 18.4,-1.7 27.5,-3.1 2.3,-0.3 0.6,-3.7 -1.4,-3.4 z m -60.7,-16.1 c 12.5,-2.8 21,8.3 25.2,19 -4.1,0 -8.3,-0.2 -12.4,-0.7 -4.3,-0.5 -9.1,-1.2 -13,-3.3 -0.1,0 -0.1,0 -0.2,-0.1 2.1,-0.7 4.3,-1.2 6.8,-1.6 7.7,-1.1 1.9,-12.6 -4.7,-11.6 -2.4,0.4 -4.6,0.9 -6.7,1.7 0.8,-1.5 2.4,-2.8 5,-3.4 z m 18.8,60.5 c -8,8.7 -21.5,12.8 -30.7,3.3 -7.2,-7.4 -7.4,-19.8 -5.2,-29.2 2,-8.3 6.1,-14.1 12.4,-17.7 0.5,0.4 1,0.8 1.5,1.1 8.4,5 20,5.2 29.8,4.9 0.2,0.7 0.4,1.3 0.5,2 3.4,12.7 0.6,25.8 -8.3,35.6 z m 108.8,-39.8 c -5.8,17.6 -10.6,36.4 -21.5,51.7 -1.4,2.1 -6.4,7.8 -8.9,6.1 -1.7,-1.1 -1,-6.9 -0.9,-8.5 0.5,-8 1.8,-16 2.7,-23.9 1.1,-9 2.8,-27.3 -8.8,-31 -7.1,-2.3 -15.6,2.2 -22.8,2.8 4.1,-5.2 7.6,-12.2 4.2,-17.2 -3.3,-5 -9.3,-2.5 -12.4,1.6 -3.7,4.8 -4.9,14.3 -0.4,19.1 0.1,1.2 1.4,2.2 2.6,2 5.1,2.5 12.8,0.7 17.8,0.7 2.2,-0.1 6.1,-0.8 8.2,-0.1 0.1,0.1 0,0.1 0.1,0.2 0.9,3.4 -0.2,7.6 -0.6,10.9 -1,8.9 -2.7,17.9 -2.5,26.8 0.2,8.8 5.9,33.5 18,22.2 5.7,-5.3 11.3,-14.2 14.7,-22 5.1,-11.9 10.2,-26.1 13.9,-38.4 1.2,-4 -2,-7.3 -3.4,-3 z m -62.1,-11.5 c -0.8,2.8 -2.1,5.1 -3.6,7.4 -0.1,-0.2 -0.2,-0.4 -0.3,-0.6 -1,-1.8 0.3,-7.8 1.3,-9.2 3.6,-4.7 3.8,-1.4 2.6,2.4 z m 113.7,11 c -6.5,11.3 -21.5,36 -37.8,34 -14,-1.7 -2.3,-41 0.9,-47.6 3.2,-6.7 -9.6,-13.6 -11.6,-5.2 -3.2,14.3 -7.8,28.6 -4.8,43.4 1.4,7 4.8,15.5 12.4,17.6 7.7,2.1 13.8,-3.5 19.2,-7.9 10.8,-8.7 18.6,-20.1 25,-32.3 0.9,-1.8 -2.2,-3.9 -3.3,-2 z m -36.2,-31.7 c 1.5,0.1 2.8,-0.2 4.1,-0.8 1.3,-0.7 2.2,-1.7 2.8,-3 0.1,-0.2 0.2,-0.3 0.3,-0.5 2.6,-5.9 -3.4,-12.2 -9,-12.8 -0.2,0 -0.5,-0.1 -0.7,-0.1 -2.9,0 -5.6,1 -6.9,3.8 -1.2,2.8 -0.4,6.1 1.3,8.5 1.8,2.6 4.9,4.7 8.1,4.9 z m 128.5,36 c -2.8,10.8 -7,21.5 -12.1,31.4 -3.6,7.1 -8,14.2 -13.8,19.9 -4.6,4.4 -17.1,11.7 -22.7,5 -3.6,-4.3 -2.1,-13.5 -1.4,-18.5 1,-8.5 3.1,-17 5.4,-25.3 3.6,-12.4 8.2,-24.1 12.9,-36 2.5,-6.2 -8.5,-13.4 -11.1,-6.6 -1.1,2.8 -2.2,5.6 -3.2,8.5 -0.3,0.5 -0.5,1.1 -0.8,1.6 -0.4,-0.9 -1,-1.9 -2,-2.7 -14.7,-12.6 -32.4,-3.1 -42.5,10.6 -7.6,10.2 -15.8,33.2 -1.2,41.8 14.8,8.9 29.2,-10.2 39.1,-28 -1.5,5.6 -2.9,11.1 -4.1,16.6 -2.8,12.8 -7.8,36.5 5.5,45.6 16.2,11.1 33.4,-10.8 40.3,-22.9 6.9,-12.3 12,-26.1 15.3,-39.8 0.5,-1.9 -3,-3.4 -3.6,-1.2 z m -76.6,21.7 c -5.4,3.7 -13.1,3.9 -14.1,-3.9 -0.8,-5.8 1.6,-11.8 4.3,-16.7 4.9,-8.8 20.3,-26.5 30.5,-16.1 1.8,1.9 3.9,2.3 5.6,1.8 -6.7,13 -14.9,27.4 -26.3,34.9 z m 169.2,-26 c -3.2,6.2 -18.4,38 -28.6,29.6 -5.1,-4.3 -5.3,-17 -7.1,-23.1 -3.3,-11 -10.6,-17.5 -21.4,-10.4 -11.8,7.9 -19.2,23.9 -26.3,35.8 -1.7,3 -3.5,6 -5.4,9 0,0 0,0 0,0 2.4,-19 7.3,-37.8 12.4,-56.2 2,-7.2 -9.8,-13.5 -11.6,-5.2 -4.6,21.5 -11.8,44.2 -12.2,66.4 -0.1,7.2 4.6,18.6 13.3,11.3 4.8,-4 7.9,-11.4 10.8,-16.7 4.7,-8.5 9.3,-17.1 14.4,-25.3 2.3,-3.8 9.7,-17.7 15.4,-17.1 7.1,0.8 8.9,21.6 11,27.1 11.1,28.6 33.1,-12.2 38.7,-23.2 0.9,-1.8 -2.3,-3.9 -3.4,-2 z m -95.3,49.4 c 0,-0.2 0.1,-0.2 0.3,-0.3 -0.2,0.2 -0.3,0.3 -0.3,0.3 z m 5.7,2.7 c 0,0 -0.1,-0.2 -0.1,-0.4 0.2,0.2 0.2,0.3 0.1,0.4 z"
     style="display:inline"
     sodipodi:insensitive="true" />
  <path
     style="fill:none;fill-opacity:1;stroke:#fa0000;stroke-width:0.82;stroke-opacity:1"
     d="m 197.84657,241.49482 c 0,0 20.24172,-20.89469 15.67101,-33.95387 -4.57072,-13.05918 -40.48345,-16.97694 -71.82548,7.18255 -31.34203,24.15948 -62.031107,65.2959 -60.072229,84.88466 1.958875,19.58877 3.264795,32.64795 30.689069,35.25979 0,0 47.66601,-1.95887 62.68406,7.18255 0,0 22.20061,15.67101 19.58877,45.70713 -2.61183,30.03611 -18.93581,58.11334 -31.34203,66.60181 -12.40622,8.48847 -29.38315,16.32397 -40.48345,11.1003 -11.10031,-5.22367 -4.5311,-21.54764 3.26479,-30.76829 l 26.34379,-25.02231 68.10247,-55.63626 c 0,0 19.85361,-14.54392 27.01014,-20.31531 7.15653,-5.7714 18.49888,-7.12853 18.49888,-7.12853 0,0 -25.65541,5.74339 -28.42568,23.05758 -1.87756,11.73478 -3.00113,30.47297 8.31081,37.16779 11.31193,6.69482 27.93356,8.54167 35.09009,-2.77027 7.15653,-11.31193 17.31419,-34.62837 7.8491,-46.86373 -9.46509,-12.23536 -15.46735,-24.23987 -30.70383,-19.85361 -15.23649,4.38626 -1.61599,17.08334 3.00112,18.93018 4.61712,1.84685 43.63176,5.54054 57.25226,0.46171 13.62049,-5.07882 19.8536,-13.62049 22.85473,-20.54617 3.00112,-6.92567 36.93693,-77.10585 33.47409,-102.5 -3.46283,-25.39414 -3.69369,-21.23874 -13.85135,-19.62275 -10.15765,1.616 -21.9313,37.62951 -21.9313,37.62951 0,0 -12.46622,57.94482 -12.69708,78.72185 -0.23085,20.77702 -4.84797,100.42229 1.38514,105.96283 6.23311,5.54054 11.54279,7.61825 19.62275,-2.77027 8.07995,-10.38851 29.31869,-60.71509 30.47297,-66.94819 1.15428,-6.23311 8.31081,-7.8491 12.69707,-7.61825 4.38626,0.23086 19.62275,-2.0777 22.62388,-8.31081 3.00112,-6.23311 11.77365,-12.0045 3.23198,-13.38964 -8.54167,-1.38513 -15.23649,-4.84797 -21.00788,5.07883 -5.7714,9.9268 -13.15879,21.70045 -15.46735,30.47297 -2.30856,8.77253 -8.77252,20.31532 -8.07995,29.08784 0.69257,8.77252 -1.15428,16.62162 5.07883,18.46847 6.23311,1.84685 18.23761,14.31306 47.09459,-29.31869 28.85698,-43.63176 24.00901,-50.32658 24.00901,-50.32658 0,0 -13.38964,50.55743 -12.46622,61.40766 0.92343,10.85022 5.30969,7.8491 7.15654,6.00225 1.84684,-1.84685 25.625,-44.32432 29.31869,-47.55631 3.69369,-3.23198 9.69595,-8.07995 13.6205,-5.07883 3.92454,3.00113 9.23423,13.15879 9.9268,19.62275 0.69256,6.46397 1.84684,15.92906 7.15653,15.92906 5.30968,0 9.9268,-0.69257 19.62275,-13.38964 9.69594,-12.69708 16.62162,-32.31982 16.62162,-34.62838 0,-2.30856 -11.77365,54.94369 -11.54279,62.10022 0.23085,7.15654 7.15653,3.6937 9.9268,-0.46171 2.77027,-4.1554 22.16216,-42.01576 26.77928,-45.24775 4.61711,-3.23198 10.38851,-6.2331 12.69707,-4.84797 2.30856,1.38514 3.92455,1.38514 8.54167,15.23649 0,0 2.0777,18.23761 9.23423,21.46959 7.15653,3.23198 18.46847,-11.77365 18.46847,-11.77365 0,0 13.62049,-17.7759 14.54392,-19.8536 0.92342,-2.0777 16.85247,-1.15428 16.85247,-1.15428 0,0 17.08334,-6.46396 17.77591,-14.54392 0.69256,-8.07995 -3.23199,-12.0045 -10.61937,-9.46509 -7.38739,2.53942 -16.39077,10.15766 -19.85361,17.31419 -3.46284,7.15653 -16.39076,27.93356 -15.6982,45.70946 0.69257,17.7759 -0.46171,19.16104 3.6937,22.16216 4.1554,3.00113 10.15766,6.46397 15.6982,3.46284 5.54054,-3.00113 25.625,-16.62162 27.01013,-22.39302 1.38514,-5.77139 20.31532,-33.70495 21.23874,-38.78378"
     id="path1"
     sodipodi:nodetypes="csssccssscccscsssssssssscsssssssssssscsssssssssssscscscsssssssc" />
  <path
     style="fill:none;stroke:#fa0000;stroke-width:0.82;stroke-opacity:1"
     d="m 882.79281,414.40169 c 0,0 -51.09471,-47.31223 -64.8705,-104.11599 -10.31711,-42.54203 10.38847,-33.82039 13.15876,-31.97354 2.77029,1.84685 12.57748,16.80017 9.92684,28.62612 -3.00112,13.38965 -10.85024,33.70496 -16.39082,41.55406 -5.54052,7.8491 -25.85583,33.70496 -30.01124,49.40316 -4.1554,15.69819 -1.15427,24.47072 10.38852,19.39188 11.54279,-5.07882 43.17007,-50.67286 43.63173,-58.52195"
     id="path2"
     sodipodi:nodetypes="cssssssc" />
  <path
     style="fill:none;stroke:#fa0000;stroke-width:0.82;stroke-opacity:1"
     d="m 1025.4617,221.98333 7.8491,-11.54279 -6.4639,173.60361 c 0,0 10.232,-69.83929 26.3175,-102.5 11.8599,-24.08079 32.7815,-68.79505 48.018,-76.18244 15.2365,-7.38739 28.6261,-1.84685 34.1667,6.92568 5.5405,8.77252 24.4707,33.24324 23.5473,81.26126 -0.9234,48.01802 -17.0833,101.11486 -21.2387,107.57883 -4.1555,6.46396 -30.9347,48.47972 -40.6307,54.48198 -9.6959,6.00225 -38.322,14.77477 -45.7094,13.85135 -7.3874,-0.92342 -36.0135,-13.38964 -39.2456,-18.93018 -3.2319,-5.54054 -12.92783,-21.70045 -14.31297,-30.01126 -1.38515,-8.31081 -1.38515,-23.5473 2.30857,-30.93468 3.6937,-7.38739 6.9256,-11.08109 13.8513,-12.92793 6.9257,-1.84685 24.4707,-4.61712 34.1667,-2.77027 9.696,1.84684 60.946,14.77477 67.8716,18.93018 6.9257,4.1554 31.3964,15.23648 31.3964,15.23648"
     id="path3"
     sodipodi:nodetypes="cccsssssssssssssc" />
  <path
     style="fill:none;stroke:#fa0000;stroke-width:0.82;stroke-opacity:1"
     d="m 1204.6058,325.86847 c 0,0 -18.9302,2.77027 -23.0855,12.46622 -4.1554,9.69594 -9.2343,24.47072 -5.5406,30.93468 3.6937,6.46396 4.6172,18.46847 12.4662,20.31532 7.8491,1.84684 22.6239,6.00225 25.8559,1.84684 3.232,-4.1554 14.7748,-12.0045 16.6216,-26.77928 1.8469,-14.77477 -1.3851,-33.24324 -7.3874,-37.39865 -6.0022,-4.15541 -15.6981,-14.31306 -25.3941,-10.15766 -9.696,4.15541 -6.0023,14.77478 0.4617,17.54505 6.464,2.77027 25.3942,6.92568 38.322,4.15541 12.928,-2.77027 23.0857,0.46171 26.3176,-1.38514 3.232,-1.84684 9.696,-13.85135 6.9257,-16.62162 -2.7703,-2.77027 -10.6194,-0.92343 -10.6194,1.84685 0,2.77027 -4.6171,12.0045 0,14.31306 4.6172,2.30856 18.0068,5.54054 25.8559,2.77027 7.8491,-2.77027 9.2342,8.31081 8.7726,15.23649 -0.4618,6.92567 -7.3874,23.54729 -4.6172,30.01125 2.7703,6.46397 0.4617,18.00676 6.464,17.08334 6.0022,-0.92342 18.4684,-18.46846 18.4684,-18.46846 l 13.8514,-36.93694 7.8491,-23.54731 c 0,0 -8.3108,15.69821 -6.0022,32.31983 2.3085,16.62162 4.1554,21.70045 10.6193,21.70045 6.464,0 18.9302,-6.00226 24.4708,-13.38964 5.5404,-7.38739 16.6215,-34.62838 27.7027,-39.2455 11.081,-4.61712 18.0067,-5.07883 23.0855,-2.30855 5.0788,2.77027 -17.545,-11.08109 -31.8581,9.69594 -14.3131,20.77703 -8.3108,32.78153 -5.0788,34.16667 3.232,1.38513 9.2342,8.3108 15.2365,4.15541 6.0022,-4.15541 37.3987,-44.78604 39.2455,-51.71172 1.8468,-6.92567 -10.6194,24.93243 -11.5429,33.70496 -0.9234,8.77252 -9.2341,30.01126 -5.5404,40.16891 3.6936,10.15766 10.1576,15.69821 17.545,13.85136 7.3874,-1.84685 36.4752,-34.16667 36.9369,-42.01577 0.4617,-7.8491 10.1577,-36.47523 10.6194,-40.16892 0.4617,-3.69369 -12.4662,38.78379 -11.0811,55.40541 1.3851,16.62162 13.3897,-2.30856 13.3897,-2.30856 0,0 18.8299,-35.33667 24.4706,-38.78378 8.3108,-5.07884 15.6702,-5.13965 19.392,12.0045 2.9222,13.46063 4.6745,21.32068 12.4661,20.77703 10.1435,-0.70775 24.0091,-26.31758 25.3942,-30.47297"
     id="path4"
     sodipodi:nodetypes="cssssssssssssssssscccssssssssssssssscsssc" />
  <path
     style="fill:none;stroke:#fa0000;stroke-width:0.82;stroke-opacity:1"
     d="m 1342.6577,292.16351 c 0,0 -7.3874,-2.77027 -7.8492,2.30856 -0.4616,5.07883 1.3852,11.08108 7.1566,11.08108 5.7714,0 9.2343,-5.07883 8.5417,-6.92567 -0.6926,-1.84685 -7.8491,-6.46397 -7.8491,-6.46397 z"
     id="path5" />
</svg>
