<svg version="1.2" xmlns="http://www.w3.org/2000/svg" viewBox="0 0 1640 664" width="2000" height="810">
	<style>
		.s0 { fill: #e9edef } 
	</style>
	<path id="Solenne &amp; Dorian" class="s0" aria-label="Solenne &amp; Dorian"  d="m237.6 338.1c-13.8 10.6-27.6 21.3-41.3 32.1-2.9-14.4-10.5-27-24.8-34.2-19.5-9.9-41.6-4.2-62.3-6.7-9.6-1.2-18.4-4.6-20.9-14.8-2.3-10 0.9-21 4.6-30.2 11.1-27.7 32.8-52.7 59.4-66.5 13.3-6.9 29.2-12.9 44.4-12.7 7.3 0.1 11 0.8 8.7 9.1-2.5 9.1-8 17.5-13.2 25.2-3.1 4.5 4.1 11.7 7.8 7.3 10.7-13.1 32.5-43.1 5.9-52.6-21.9-7.8-52.3 5.6-70.4 17.2-21.2 13.5-38.7 33.4-50.1 55.8-8.3 16.3-15.1 38.6-5.6 55.8 10.3 18.7 32.3 16.6 50.6 15.9 24-0.9 48.9 1 56.7 27.9 0.9 3 1.5 6.2 2 9.3-19 15.2-37.5 30.8-55.2 47.3-10.1 9.4-32.8 33.9-11.5 44.8 16.7 8.5 41.2-7.1 51.9-19.2 15.1-16.8 25.9-47.2 22.9-73.1 14.4-11.7 28.9-23.3 43.5-34.7 1.8-1.4-1.3-4.4-3.1-3zm-65 101.1c-6.9 9.5-15.7 16.5-26.5 21-5.9 2.5-14 5.5-20.3 3.3-11.1-3.9-5.2-16-0.5-22.6 8-11 19.1-20.1 29.3-29.1 11.4-10.2 23.2-20.1 35-29.8 1.1 20.1-5.6 41.5-17 57.2zm147.2-104.4c-9 1.2-18.3 2.4-27.5 2.8-3.8-8.6-10.1-16.1-18.5-20.9-6.5-3.6-20-5.9-24.7 1.8-1.3 2.1-1.6 4.4-1.3 6.7-16.1 10.3-21.9 33.9-14.9 51.9 9.6 24.8 40.2 27.4 55.4 6.2 8.8-12.2 10.2-28.2 5.4-42 9.2-0.6 18.4-1.7 27.5-3.1 2.3-0.3 0.6-3.7-1.4-3.4zm-60.7-16.1c12.5-2.8 21 8.3 25.2 19-4.1 0-8.3-0.2-12.4-0.7-4.3-0.5-9.1-1.2-13-3.3-0.1 0-0.1 0-0.2-0.1 2.1-0.7 4.3-1.2 6.8-1.6 7.7-1.1 1.9-12.6-4.7-11.6-2.4 0.4-4.6 0.9-6.7 1.7 0.8-1.5 2.4-2.8 5-3.4zm18.8 60.5c-8 8.7-21.5 12.8-30.7 3.3-7.2-7.4-7.4-19.8-5.2-29.2 2-8.3 6.1-14.1 12.4-17.7 0.5 0.4 1 0.8 1.5 1.1 8.4 5 20 5.2 29.8 4.9 0.2 0.7 0.4 1.3 0.5 2 3.4 12.7 0.6 25.8-8.3 35.6zm98.2-38c-8.5 24-15.9 54.3-35.5 72.1-2.7 2.5-6.4 5.6-9 2.5-1.9-2.1-2-8.2-2.3-10.9-0.8-8.2-0.3-16.4 0.1-24.6 0.6-13.5 0.9-27 1.5-40.4 10.1-16.1 18.6-33.7 26.2-51 8.8-20.1 17.9-41.6 20.4-63.6 1.1-10 3.7-36.1-11.2-37.5-12.5-1.1-21.8 16.7-25.9 26-15.4 35.2-18.3 77.1-20.8 115-1.1 17-1.8 34.1-1.5 51.3 0.2 12-1.6 37.6 11.4 44.5 16.2 8.6 28.2-22.9 32.8-32.7 7.2-15.7 13.5-32.2 17.9-48.9 0.6-1.9-3.3-4-4.1-1.8zm-34.3-101.3c2.8-12.2 6.4-25.8 13.9-36 1.3-1.9 2.8-3.6 4.5-5.1 5.4-4.9 9.5-2.7 10.7 3.6 1.5 7.9 1.2 16.5 0.2 24.4-4.6 36.1-23.3 68.2-39.6 100.3 1.4-29.2 3.7-58.8 10.3-87.2zm96.5 99c-5.3 12.2-11.5 24.1-19 35.1-5.8 8.7-32.7 42.1-43 21.4-4.5-9.1 0.2-24.5 3.2-33.3 2-6 4.6-11.8 7.6-17.4 0.1 0.1 0.2 0.1 0.3 0.1 11.1 2.2 23.2-2.1 31.1-10 6.1-6.2 10.3-16.2 1.7-22.4-18-12.7-34.8 12.2-41.7 25.5-8.3 15.9-20.3 47.1-5.5 62.8 13.1 13.9 31.4-0.2 40.6-11.1 12.1-14.3 20.9-31.5 28-48.7 0.8-1.8-2.4-4-3.3-2zm-25.6-18.7c3.6 2-6.1 9.6-8.4 11-3.6 2.2-7.1 2.9-10.7 2.8 4.2-6 13.1-17.3 19.1-13.8zm117.5 18.7c-3.2 6.2-18.4 38-28.6 29.6-5.1-4.3-5.3-17-7.1-23.1-3.3-11-10.6-17.5-21.4-10.4-11.8 7.9-19.2 23.9-26.3 35.8-1.7 3-3.5 6-5.4 9 0 0 0 0 0 0 2.4-19 7.3-37.8 12.4-56.2 2-7.2-9.8-13.5-11.6-5.2-4.6 21.5-11.8 44.2-12.2 66.4-0.1 7.2 4.6 18.6 13.3 11.3 4.8-4 7.9-11.4 10.8-16.7 4.7-8.5 9.3-17.1 14.4-25.3 2.3-3.8 9.7-17.7 15.4-17.1 7.1 0.8 8.9 21.6 11 27.1 11.1 28.6 33.1-12.2 38.7-23.2 0.9-1.8-2.3-3.9-3.4-2zm-95.3 49.4c0-0.2 0.1-0.2 0.3-0.3-0.2 0.2-0.3 0.3-0.3 0.3zm5.7 2.7c0 0-0.1-0.2-0.1-0.4 0.2 0.2 0.2 0.3 0.1 0.4zm181.6-52.1c-3.2 6.2-18.4 38-28.6 29.6-5.1-4.3-5.3-17-7.1-23.1-3.3-11-10.6-17.5-21.4-10.4-11.8 7.9-19.2 23.9-26.3 35.8-1.7 3-3.5 6-5.4 9 0 0 0 0 0 0 2.4-19 7.3-37.8 12.4-56.2 2-7.2-9.8-13.5-11.6-5.2-4.6 21.5-11.8 44.2-12.2 66.4-0.1 7.2 4.6 18.6 13.3 11.3 4.8-4 7.9-11.4 10.8-16.7 4.7-8.5 9.3-17.1 14.4-25.3 2.3-3.8 9.7-17.7 15.4-17.1 7.1 0.8 8.9 21.6 11 27.1 11.1 28.6 33.1-12.2 38.7-23.2 0.9-1.8-2.3-3.9-3.4-2zm-95.3 49.4c0-0.2 0.1-0.2 0.3-0.3-0.2 0.2-0.3 0.3-0.3 0.3zm5.7 2.7c0 0-0.1-0.2-0.1-0.4 0.2 0.2 0.2 0.3 0.1 0.4zm149.7-52.1c-5.3 12.2-11.5 24.1-19 35.1-5.8 8.7-32.7 42.1-43 21.4-4.5-9.1 0.2-24.5 3.2-33.3 2-6 4.6-11.8 7.6-17.4 0.1 0.1 0.2 0.1 0.3 0.1 11.1 2.2 23.2-2.1 31.1-10 6.1-6.2 10.3-16.2 1.7-22.4-18-12.7-34.8 12.2-41.7 25.5-8.3 15.9-20.3 47.1-5.5 62.8 13.1 13.9 31.4-0.2 40.6-11.1 12.1-14.3 20.9-31.5 28-48.7 0.8-1.8-2.4-4-3.3-2zm-25.6-18.7c3.6 2-6.1 9.6-8.4 11-3.6 2.2-7.1 2.9-10.7 2.8 4.2-6 13.1-17.3 19.1-13.8zm228.7 93.4c-11-13.1-22.9-25-32.6-39.1-0.7-1-1.4-1.9-2-2.9 1.6-3.3 3-6.6 4.3-10 2.4-6.6-8.5-14.4-12.1-7.1-0.4 0.8-0.8 1.7-1.2 2.5-2.8-5-5.5-10.1-7.9-15.4 4.1-7.7 7.5-15.8 9.5-24.7 2.5-11.2 3.3-25.8-3.8-35.7-5-6.9-15.2-11.2-22.8-5.6-9.2 6.9-6 20-3.6 29.4 3 11.6 6.9 22.9 11.7 33.9-2 3.4-4.1 6.7-6.2 9.9-8.9 13.6-52.7 63.9-23.7 76.2 12.8 5.4 27.4-13.3 34.5-21.5 6.3-7.4 12.2-15.5 17.2-24.1 9.8 14.6 21.5 28 35.3 37.9 2.4 1.7 5.3-1.4 3.4-3.7zm-65.7-112.7c-1.1-4.9-2.7-11 0.1-15.7 7.7-12.9 16.4 3.2 17.1 10.6 1.3 12.1-2.3 24-7.7 35-0.4-1.1-0.9-2.2-1.3-3.4-3.3-8.6-6.2-17.5-8.2-26.5zm0.3 91.6c-4.4 5.3-9.1 10.3-14 15.1-0.9 0.8-2.4 2.9-3.5 3.3-4.2 1.5-4.9-1.7-4.4-5.3 0.5-3.9 2.9-8.2 4.5-11.8 7.3-15.7 18.1-29.7 27-44.5 2.5 5.2 5.2 10.5 8.2 15.6-5.1 9.7-10.7 19-17.8 27.6zm298.2-198.2c-17.1-3.7-30.3 11-39.3 23.4-11.8 16.3-20.7 34.5-28.3 53.1-5.2 12.9-9.9 26.1-14 39.4 0.2-3.5 0.3-7 0.4-10.5 1.2-29.9 2.2-59.8 2.2-89.7 0.1-4.8-6.6-9.7-9.9-4.4-2.8 4.6-5.4 9.2-7.7 14-1.6 3.2 3.2 7.4 6.1 5.3-1.7 24.1-2.9 48.3-4 72.4-0.7 14.9-1.3 29.7-2 44.6-0.5 10-1.4 20.3-1.4 30.5-13.9 2.7-25.4 10.5-27 27.7-2.8 28.4 16 58.9 43.4 67.5 21.1 6.7 44.3 2.9 62.2-10 17.6-12.6 30.5-30.6 40-50.9 2.4 1.1 4.8 2.2 7.2 3.2 3 1.3 3.8-3.3 1.3-4.6-2.2-1-4.3-2-6.4-3 11.3-25.9 17.3-54.9 20-80.5 2.6-24.6 2.7-50.6-3.3-74.8-4.9-20.1-17.1-47.8-39.5-52.7zm-3.9 236.6c-10.7 14.3-25.1 27.5-43.1 31.6-29.7 6.7-57.9-7.6-68.2-36.5-4.3-12.1-6.8-29.8 3-40.1 3.8-4 9-6.2 14.5-7.4 0.1 2.6 0.2 5.2 0.5 7.8 0.6 5.5 10 9.1 11.4 2.2 0.5-2.6 0.9-5.3 1.3-8 0.3-1.1 0.7-2.2 1-3.2 1 0 1.9 0 2.8 0 32 1.1 63.7 13.1 93.3 25.9-4.7 9.8-10.1 19.1-16.5 27.7zm38.9-133.9c-0.4 33.5-6.3 69.8-20.3 101.5-29.6-13.7-61.7-25.5-94-27.2-0.7-0.1-1.4-0.1-2.1-0.1 2-6.1 4.1-12.2 5.7-18.5 3.8-15.1 7.9-30.1 12.6-44.9 9.4-30.1 20.9-62.9 40.9-87.8 9.1-11.4 20.7-19.2 33.1-7.2 6.5 6.4 11.4 15 14.7 23.4 7.6 19.1 9.7 40.5 9.4 60.8zm107.6 37.8c-9 1.2-18.3 2.4-27.5 2.8-3.8-8.6-10.1-16.1-18.5-20.9-6.5-3.6-20-5.9-24.7 1.8-1.3 2.1-1.6 4.4-1.3 6.7-16.1 10.3-21.9 33.9-14.9 51.9 9.6 24.8 40.2 27.4 55.4 6.2 8.8-12.2 10.2-28.2 5.4-42 9.2-0.6 18.4-1.7 27.5-3.1 2.3-0.3 0.6-3.7-1.4-3.4zm-60.7-16.1c12.5-2.8 21 8.3 25.2 19-4.1 0-8.3-0.2-12.4-0.7-4.3-0.5-9.1-1.2-13-3.3-0.1 0-0.1 0-0.2-0.1 2.1-0.7 4.3-1.2 6.8-1.6 7.7-1.1 1.9-12.6-4.7-11.6-2.4 0.4-4.6 0.9-6.7 1.7 0.8-1.5 2.4-2.8 5-3.4zm18.8 60.5c-8 8.7-21.5 12.8-30.7 3.3-7.2-7.4-7.4-19.8-5.2-29.2 2-8.3 6.1-14.1 12.4-17.7 0.5 0.4 1 0.8 1.5 1.1 8.4 5 20 5.2 29.8 4.9 0.2 0.7 0.4 1.3 0.5 2 3.4 12.7 0.6 25.8-8.3 35.6zm108.8-39.8c-5.8 17.6-10.6 36.4-21.5 51.7-1.4 2.1-6.4 7.8-8.9 6.1-1.7-1.1-1-6.9-0.9-8.5 0.5-8 1.8-16 2.7-23.9 1.1-9 2.8-27.3-8.8-31-7.1-2.3-15.6 2.2-22.8 2.8 4.1-5.2 7.6-12.2 4.2-17.2-3.3-5-9.3-2.5-12.4 1.6-3.7 4.8-4.9 14.3-0.4 19.1 0.1 1.2 1.4 2.2 2.6 2 5.1 2.5 12.8 0.7 17.8 0.7 2.2-0.1 6.1-0.8 8.2-0.1 0.1 0.1 0 0.1 0.1 0.2 0.9 3.4-0.2 7.6-0.6 10.9-1 8.9-2.7 17.9-2.5 26.8 0.2 8.8 5.9 33.5 18 22.2 5.7-5.3 11.3-14.2 14.7-22 5.1-11.9 10.2-26.1 13.9-38.4 1.2-4-2-7.3-3.4-3zm-62.1-11.5c-0.8 2.8-2.1 5.1-3.6 7.4-0.1-0.2-0.2-0.4-0.3-0.6-1-1.8 0.3-7.8 1.3-9.2 3.6-4.7 3.8-1.4 2.6 2.4zm113.7 11c-6.5 11.3-21.5 36-37.8 34-14-1.7-2.3-41 0.9-47.6 3.2-6.7-9.6-13.6-11.6-5.2-3.2 14.3-7.8 28.6-4.8 43.4 1.4 7 4.8 15.5 12.4 17.6 7.7 2.1 13.8-3.5 19.2-7.9 10.8-8.7 18.6-20.1 25-32.3 0.9-1.8-2.2-3.9-3.3-2zm-36.2-31.7c1.5 0.1 2.8-0.2 4.1-0.8 1.3-0.7 2.2-1.7 2.8-3 0.1-0.2 0.2-0.3 0.3-0.5 2.6-5.9-3.4-12.2-9-12.8-0.2 0-0.5-0.1-0.7-0.1-2.9 0-5.6 1-6.9 3.8-1.2 2.8-0.4 6.1 1.3 8.5 1.8 2.6 4.9 4.7 8.1 4.9zm128.5 36c-2.8 10.8-7 21.5-12.1 31.4-3.6 7.1-8 14.2-13.8 19.9-4.6 4.4-17.1 11.7-22.7 5-3.6-4.3-2.1-13.5-1.4-18.5 1-8.5 3.1-17 5.4-25.3 3.6-12.4 8.2-24.1 12.9-36 2.5-6.2-8.5-13.4-11.1-6.6-1.1 2.8-2.2 5.6-3.2 8.5-0.3 0.5-0.5 1.1-0.8 1.6-0.4-0.9-1-1.9-2-2.7-14.7-12.6-32.4-3.1-42.5 10.6-7.6 10.2-15.8 33.2-1.2 41.8 14.8 8.9 29.2-10.2 39.1-28-1.5 5.6-2.9 11.1-4.1 16.6-2.8 12.8-7.8 36.5 5.5 45.6 16.2 11.1 33.4-10.8 40.3-22.9 6.9-12.3 12-26.1 15.3-39.8 0.5-1.9-3-3.4-3.6-1.2zm-76.6 21.7c-5.4 3.7-13.1 3.9-14.1-3.9-0.8-5.8 1.6-11.8 4.3-16.7 4.9-8.8 20.3-26.5 30.5-16.1 1.8 1.9 3.9 2.3 5.6 1.8-6.7 13-14.9 27.4-26.3 34.9zm169.2-26c-3.2 6.2-18.4 38-28.6 29.6-5.1-4.3-5.3-17-7.1-23.1-3.3-11-10.6-17.5-21.4-10.4-11.8 7.9-19.2 23.9-26.3 35.8-1.7 3-3.5 6-5.4 9 0 0 0 0 0 0 2.4-19 7.3-37.8 12.4-56.2 2-7.2-9.8-13.5-11.6-5.2-4.6 21.5-11.8 44.2-12.2 66.4-0.1 7.2 4.6 18.6 13.3 11.3 4.8-4 7.9-11.4 10.8-16.7 4.7-8.5 9.3-17.1 14.4-25.3 2.3-3.8 9.7-17.7 15.4-17.1 7.1 0.8 8.9 21.6 11 27.1 11.1 28.6 33.1-12.2 38.7-23.2 0.9-1.8-2.3-3.9-3.4-2zm-95.3 49.4c0-0.2 0.1-0.2 0.3-0.3-0.2 0.2-0.3 0.3-0.3 0.3zm5.7 2.7c0 0-0.1-0.2-0.1-0.4 0.2 0.2 0.2 0.3 0.1 0.4z"/>
</svg>